<?xml version="1.0" standalone="no"?>
<!DOCTYPE svg PUBLIC "-//W3C//DTD SVG 20010904//EN"
 "http://www.w3.org/TR/2001/REC-SVG-20010904/DTD/svg10.dtd">
<svg version="1.0" xmlns="http://www.w3.org/2000/svg"
 width="235.000000pt" height="243.000000pt" viewBox="0 0 235.000000 243.000000"
 preserveAspectRatio="xMidYMid meet">
<metadata>
Created by potrace 1.10, written by Peter Selinger 2001-2011
</metadata>
<g transform="translate(0.000000,243.000000) scale(0.100000,-0.100000)"
fill="#000000" stroke="none">
<path d="M1549 1887 c-55 -37 -104 -118 -139 -230 -18 -56 -43 -137 -57 -179
-39 -122 -107 -198 -178 -198 -17 0 -66 11 -109 25 -43 14 -89 25 -101 25 -11
0 -51 -18 -88 -40 -96 -58 -108 -54 -126 44 -18 100 -69 156 -140 156 -37 0
-84 -39 -101 -82 -27 -73 -41 -99 -76 -138 -40 -44 -100 -80 -133 -80 -37 0
-31 -18 19 -54 27 -20 50 -39 50 -43 1 -5 9 -18 19 -30 l19 -22 39 38 c22 20
60 47 84 59 24 13 33 20 19 16 -14 -3 -38 -12 -54 -20 -16 -8 -35 -14 -43 -14
-7 0 -16 -7 -19 -15 -9 -22 -31 -18 -49 8 -8 13 -28 30 -43 37 l-27 12 25 10
c14 6 81 8 155 5 94 -3 149 -1 200 10 90 20 298 19 475 -1 167 -19 379 -20
485 -1 55 9 108 28 168 59 67 34 87 40 85 28 -4 -22 -135 -88 -212 -107 -32
-8 -107 -20 -165 -26 -110 -11 -156 -8 -491 27 -127 13 -183 15 -240 8 l-75
-10 125 -1 c69 0 139 -3 155 -6 17 -3 59 -9 95 -12 36 -4 88 -11 115 -15 107
-17 315 -12 415 10 136 30 267 44 334 35 l59 -7 -50 -51 c-70 -73 -104 -120
-152 -212 -65 -123 -133 -179 -183 -153 -27 13 -58 82 -73 159 -19 101 -33
119 -98 119 l-52 0 30 20 c17 11 25 20 19 20 -6 0 -14 -3 -18 -7 -8 -8 -27
-13 -77 -20 -23 -3 -66 5 -118 21 -99 31 -139 32 -191 6 -46 -23 -114 -101
-117 -133 -1 -12 -11 -51 -23 -87 -11 -36 -32 -100 -45 -143 -42 -134 -101
-199 -181 -201 -87 -2 -135 70 -184 274 -64 266 -60 237 -32 265 14 14 31 25
38 25 8 0 14 6 14 14 0 14 54 36 145 61 28 7 41 14 30 14 -64 2 -229 -70 -265
-117 -17 -21 -18 -27 -6 -51 8 -14 17 -49 21 -76 10 -73 50 -232 75 -297 37
-101 82 -138 166 -138 104 0 172 89 229 300 41 156 90 241 157 276 38 20 68
18 149 -11 57 -20 89 -24 172 -24 96 1 103 -1 123 -24 14 -17 23 -44 27 -89 6
-68 18 -104 50 -150 15 -23 26 -28 59 -28 56 0 96 33 138 112 38 73 141 222
200 290 l40 46 -34 22 c-44 27 -111 106 -132 155 -8 21 -24 82 -34 136 -39
202 -88 326 -151 384 -47 42 -90 46 -140 12z m117 -38 c14 -16 16 -23 6 -26
-7 -3 -33 -19 -59 -36 -61 -42 -116 -135 -154 -262 -59 -195 -89 -245 -155
-261 -39 -10 -40 2 -1 45 50 56 68 96 117 256 23 76 49 153 57 170 27 52 83
123 101 128 40 11 70 6 88 -14z m47 -58 c29 -11 79 -162 112 -340 9 -47 23
-98 31 -114 14 -26 14 -31 -1 -47 -21 -23 -109 -56 -200 -75 -82 -17 -416 -20
-480 -5 -22 6 -102 13 -178 17 -149 7 -158 12 -91 51 49 28 68 26 293 -33 147
-39 209 14 271 229 51 177 117 286 190 315 30 12 30 12 53 2z m-1027 -365 c22
-23 34 -49 42 -92 7 -33 19 -70 28 -83 9 -12 14 -23 13 -25 -26 -17 -369 -47
-369 -32 0 4 17 25 39 47 21 22 57 78 80 123 57 114 101 130 167 62z m1243
-234 c-52 -4 -60 4 -30 29 23 19 23 19 47 -4 l23 -22 -40 -3z"/>
<path d="M556 1638 c-23 -23 -41 -59 -60 -117 -35 -109 -63 -163 -127 -247
-38 -51 -44 -61 -20 -39 63 58 115 153 175 317 25 68 57 98 104 98 27 0 44 -7
59 -22 29 -32 43 -62 43 -91 0 -46 39 -153 64 -177 19 -16 40 -24 78 -26 l53
-4 -57 13 c-31 7 -63 19 -72 26 -18 15 -46 101 -46 140 0 47 -20 99 -49 130
-24 25 -37 31 -71 31 -34 0 -48 -6 -74 -32z"/>
<path d="M1855 1600 c4 -14 20 -74 36 -135 16 -60 29 -119 30 -130 1 -16 2
-17 6 -3 6 22 -45 235 -64 268 l-14 25 6 -25z"/>
</g>
</svg>
